# xmcd
#
# Track frame offsets: 
#        182
#        21295
#        36055
#        51227
#        81177
#        101630
#        122997
#        134827
#        150682
#
# Disc length: 2242 seconds
#
# Revision: 8
# Processed by: cddbd v1.5.2PL0 Copyright (c) Steve Scherf et al.
# Submitted via: ExactAudioCopy v1.0b1
#
DISCID=7b08c009
DTITLE=Rainbow - Ritchie Blackmore's Rainbow
DYEAR=1975
DGENRE=Classic Rock
TTITLE0=Man On The Silver Mountain
TTITLE1=Self Portrait
TTITLE2=Black Sheep Of The Family
TTITLE3=Catch The Rainbow
TTITLE4=Snake Charmer
TTITLE5=The Temple Of The King
TTITLE6=If You Don't Like Rock 'N' Roll
TTITLE7=Sixteenth Century Greensleeves
TTITLE8=Still I'm Sad
EXTD=
EXTT0=
EXTT1=
EXTT2=
EXTT3=
EXTT4=
EXTT5=
EXTT6=
EXTT7=
EXTT8=
PLAYORDER=
